<svg xmlns="http://www.w3.org/2000/svg" viewBox="0 0 100 100" fill="none">
<title>鱼尾山屋 · 雪峰小屋印记</title>
<desc>章节象征印记，非地理图形：鱼尾峰的双峰剪影压在一间亮着窗的小屋上，峰顶一抹朝霞。</desc>
<path d="M7 8L93 7L92 93L8 94Z" stroke="#944b39" stroke-width="3"/>
<path d="M14 15L86 14L85 86L15 85Z" stroke="#944b39" stroke-width=".8"/>
<path d="M17 60L33 42L41 49L50 24L55 31L59 21L67 44L74 38L84 58" stroke="#944b39" stroke-width="2.3" stroke-linejoin="round" stroke-linecap="round"/>
<path d="M46 34L50 24L55 31M55 31L59 21L62 30" stroke="#944b39" stroke-width="1.1" stroke-linejoin="round"/>
<path d="M44 27C48 22 56 19 64 21" stroke="#944b39" stroke-width="1" stroke-dasharray="1.5 2.5" stroke-linecap="round"/>
<path d="M36 78V64L47 56L58 64V78Z" stroke="#944b39" stroke-width="2.1" stroke-linejoin="round"/>
<path d="M33 66L47 54L61 66" stroke="#944b39" stroke-width="2.1" stroke-linejoin="round" stroke-linecap="round"/>
<rect x="43.5" y="66" width="7" height="6.5" fill="#944b39"/>
<path d="M22 81C32 78 42 82 52 79C62 76 72 81 80 79" stroke="#944b39" stroke-width="1.5" stroke-linecap="round"/>
</svg>
